{"title":"Turtles Forever (2009) DVDRip XviD-SKITTLES","uid":5768437,"size":737251140,"categoryP":"video","categoryS":"movies","magnet":"?xt=urn:btih:2bec04eac44a6760d49609ffb2f7bc1649cfc3c7&amp;dn=Turtles+Forever+%282009%29+DVDRip+XviD-SKITTLES&amp;tr=udp%3A%2F%2Ftracker.openbittorrent.com%3A80&amp;tr=udp%3A%2F%2Fopen.demonii.com%3A1337&amp;tr=udp%3A%2F%2Ftracker.coppersurfer.tk%3A6969&amp;tr=udp%3A%2F%2Fexodus.desync.com%3A6969","seeders":0,"leechers":1,"uploader":"SkittlesRG","files":-1,"time":1282011125,"description":"[img]http://leetleech.org/images/69648970786935352232.jpg[/img]\n\n[b]Turtles Forever (2009) DVDRip XviD-SKITTLES[/b]\n\n[img]http://leetleech.org/images/39185456263711143641.png[/img]\n\nVideo\nID                               : 0\nFormat                           : MPEG-4 Visual\nFormat profile                   : Advanced Simple@L5\nFormat settings, BVOP            : Yes\nFormat settings, QPel            : No\nFormat settings, GMC             : No warppoints\nFormat settings, Matrix          : Default (H.263)\nMuxing mode                      : Packed bitstream\nCodec ID                         : XVID\nCodec ID/Hint                    : XviD\nDuration                         : 1h 12mn\nBit rate                         : 1 217 Kbps\nWidth                            : 720 pixels\nHeight                           : 304 pixels\nDisplay aspect ratio             : 2.35:1\nFrame rate                       : 23.976 fps\nColor space                      : YUV\nChroma subsampling               : 4:2:0\nBit depth                        : 8 bits\nScan type                        : Progressive\nBits/(Pixel*Frame)               : 0.232\nStream size                      : 632 MiB (90%)\nWriting library                  : XviD 1.2.1 (UTC 2008-12-04)\n\nAudio\nID                               : 1\nFormat                           : MPEG Audio\nFormat version                   : Version 1\nFormat profile                   : Layer 3\nMode                             : Joint stereo\nMode extension                   : MS Stereo\nCodec ID                         : 55\nCodec ID/Hint                    : MP3\nDuration                         : 1h 12mn\nBit rate mode                    : Constant\nBit rate                         : 128 Kbps\nChannel(s)                       : 2 channels\nSampling rate                    : 48.0 KHz\nStream size                      : 66.5 MiB (9%)\nAlignment                        : Aligned on interleaves\nInterleave, duration             : 42 ms (1.00 video frame)\nInterleave, preload duration     : 504 ms\n &lt;a href=&quot;\nhttp://www.imdb.com/title/tt1543920/&quot; rel=&quot;nofollow&quot; target=&quot;_NEW&quot;&gt;\nhttp://www.imdb.com/title/tt1543920/&lt;/a&gt;\n\n[img]http://leetleech.org/images/46941880339015444838.png[/img]\n\nMichael Sinterniklaas...Leonardo (voice)\nWayne Grayson\t... \tMichelangelo (voice)\nSam Riegel\t... \tDonatello (voice)\nGregory Abbey\t... \tRaphael (voice) (as Greg Abbey)\nDarren Dunstan\t... \tSplinter (voice)\nMarc Thompson\t... \tCasey Jones (voice)\nVeronica Taylor\t... \tApril O'Neil (voice)\nScottie Ray\t... \tThe Shredder / Ch'rell (voice)\n\n[img]http://leetleech.org/images/70187465700988366433.png[/img]\n\nGenre:\nAnimation | Action | Adventure | Comedy | Thriller\n\nThe 2003 Ninja Turtles find their 1987 originals captured and \nheld hostage by Hun. The 2003 Turtles defeat Hun, and the Purple \nDragons and rescue their classic originals and escape to the modern \nTurtles' Lair. Meanwhile, the Technodrome from the 1987 TV series \nalong with Shredder, Krang, Bebop and Rocksteady are together \nagain and fight both versions of the turtles. Meanwhile the \nclassic Shredder, transports the Utrom Shredder back from the \nice asteroid that he was sent to after the &quot;Exodus&quot; episode. \nThe classic Shredder and Krang had no idea that the modern \nShredder would turn against them and sets out to erase the entire\nNinja Turtle Universe, starting all the way back to the 1984 Mirage\nComic series to where the Ninja Turtles are as of today, including the\n1987 TV series Turtles, the live-action turtles, all the comic book \nturtles, and the modern TV series Turtles. \n\n[img]http://leetleech.org/images/64476088802225496360.png[/img]\n\n[img]http://leetleech.org/images/75413588400270542639.jpg[/img]\n[img]http://leetleech.org/images/28281436644741009455.jpg[/img]\n[img]http://leetleech.org/images/50319350191807742633.jpg[/img]\n[img]http://leetleech.org/images/94804857884795118809.jpg[/img]\n[img]http://leetleech.org/images/64795907278224645931.jpg[/img]\n[img]http://leetleech.org/images/80873469664828108267.jpg[/img]","torrent":{"xt":"urn:btih:2bec04eac44a6760d49609ffb2f7bc1649cfc3c7","amp;dn":"Turtles+Forever+%282009%29+DVDRip+XviD-SKITTLES","amp;tr":["udp%3A%2F%2Ftracker.openbittorrent.com%3A80","udp%3A%2F%2Fopen.demonii.com%3A1337","udp%3A%2F%2Ftracker.coppersurfer.tk%3A6969","udp%3A%2F%2Fexodus.desync.com%3A6969"],"infoHash":"2bec04eac44a6760d49609ffb2f7bc1649cfc3c7","infoHashBuffer":{"type":"Buffer","data":[43,236,4,234,196,74,103,96,212,150,9,255,178,247,188,22,73,207,195,199]},"announce":[],"urlList":[]}}